# xmcd
#
# Track frame offsets:
#	150
#	24100
#	51343
#	69640
#	107156
#	143725
#	171880
#	202522
#	229795
#	267327
#	288457
#	318165
#	335694
#
# Disc length: 4757 seconds
#
# Revision: 0
# Processed by: cddbd v1.5.2PL0 Copyright (c) Steve Scherf et al.
# Submitted via: EasyCDDAExtractor 2010.6.0.0
#
DISCID=b712930d
DTITLE=Various Artist - The Chic Organization cd 1
DYEAR=2013
DGENRE=Disco
TTITLE0=Chic - Le Freak (12" Version)
TTITLE1=Sister Sledge - He's The Greatest Dancer (12" Version)
TTITLE2=Diana Ross - Upside Down
TTITLE3=Chic - Everybody Dance (12" Version)
TTITLE4=Sister Sledge - We Are Family (12" Version)
TTITLE5=Sheila and B. Devotion - Spacer  (12" Version)
TTITLE6=Chic - I Want Your Love  (12" Version)
TTITLE7=Norma Jean Wright - Saturday (12" Version)
TTITLE8=Chic - Dance, Dance, Dance (Yowsah, Yowsah, Yowsah) (12" Version)
TTITLE9=Sister Sledge - Lost In Music
TTITLE10=Chic - My Feet Keep Dancing (12" Version)
TTITLE11=Diana Ross - My Old Piano
TTITLE12=Chic - Chic Cheer
EXTD=
EXTT0=
EXTT1=
EXTT2=
EXTT3=
EXTT4=
EXTT5=
EXTT6=
EXTT7=
EXTT8=
EXTT9=
EXTT10=
EXTT11=
EXTT12=
PLAYORDER=
